<?xml version="1.0" encoding="utf-8"?>
<?xml-stylesheet type="text/xsl" href="rss1.xsl"?>
<rss version="2.0" xmlns:atom="http://www.w3.org/2005/Atom" xmlns:content="http://purl.org/rss/1.0/modules/content/" xmlns:dc="http://purl.org/dc/elements/1.1/" xmlns:media="http://search.yahoo.com/mrss/">
<channel>
 <title>Getty</title>
 <link>http://www.gettyimg.com/</link>
 <atom:link href="http://www.gettyimg.com/" rel="self" type="application/rss+xml" />

 
                <item>
                <title><![CDATA[【Cinema Center】MOVIE - Hobo.with.a.Shotgun.2011.1080p.HULU.WEB-DL.AAC2.0.H.264-Samuel]]></title>
                <link><![CDATA[https://sharemania.us/threads/hobo-with-a-shotgun-2011-1080p-hulu-web-dl-aac2-0-h-264-samuel.232032/]]></link>
                <description><![CDATA[<article>
<blockquote class="messageText SelectQuoteContainer ugc baseHtml">
<div style="text-align: center"><b><span style="font-size: 26px">Hobo with a Shotgun</span></b><br>
<img src="https://i.imgur.com/mW7H1Tu.jpg" class="bbCodeImage LbImage" alt="[​IMG]" data-url="https://i.imgur.com/mW7H1Tu.jpg" style=""><br>
<b><a href="https://i.imgur.com/iHKSyw3.jpg" target="_blank" class="externalLink" rel="nofollow">Alternate Artwork 1</a></b> | <b><a href="https://i.imgur.com/PpQz3cN.jpg" target="_blank" class="externalLink" rel="nofollow">Alternate Artwork 2</a></b> | <b><a href="https://i.imgur.com/RYqRjTw.jpg" target="_blank" class="externalLink" rel="nofollow">Alternate Artwork 3</a></b> | <b><a href="https://i.imgur.com/fClCkor.jpg" target="_blank" class="externalLink" rel="nofollow">Poster</a></b> | <b><a href="https://i.imgur.com/6LbD3wK.jpg" target="_blank" class="externalLink" rel="nofollow">Key Art</a></b><br>
<br>
<b>Starring:</b> Rutger Hauer, Gregory Smith, Molly Dunsworth • <b>Director:</b> Jason Eisener<br>
Drama, Action, Adventure, Crime, Legal • Movie • 2011<br>
HD<br>
<br>
<div class="bbCodeBlock bbCodeQuote">
<aside>
<blockquote class="quoteContainer"><div class="quote"><b><span style="font-size: 15px"><span style="font-family: 'Arial'">Description</span></span></b><br>
A homeless man trapped in an urban hell takes on a crime boss and the man's sadistic sons in this over-the-top thriller.</div><div class="quoteExpand">Click to expand...</div></blockquote>
</aside>
</div>
<div class="bbCodeBlock bbCodeQuote">
<aside>
<blockquote class="quoteContainer"><div class="quote"><b><span style="font-size: 15px"><span style="font-family: 'Arial'">More Information</span></span></b><br>
<b>Starring:</b> Rutger Hauer, Gregory Smith, Molly Dunsworth, Brian Downey, Nick Bateman<br>
<b>Director:</b> Jason Eisener<br>
<br>
Drama, Action, Adventure, Crime, Legal • Movie • 2011<br>
HD</div><div class="quoteExpand">Click to expand...</div></blockquote>
</aside>
</div>
<div class="bbCodeBlock bbCodeQuote">
<aside>
<blockquote class="quoteContainer"><div class="quote"><b><span style="font-size: 15px"><span style="font-family: 'Arial'">Trailers</span></span></b><br>
<span data-s9e-mediaembed="googledrive" style="display:inline-block;width:100%;max-width:640px"><span style="display:block;overflow:hidden;position:relative;padding-bottom:75%"><iframe allowfullscreen="" loading="lazy" scrolling="no" src="//drive.google.com/file/d/1lKnSPzGoOnlwYYwKDvFBBVgexzB4MNCp/preview" style="border:0;height:100%;left:0;position:absolute;width:100%"></iframe></span></span></div><div class="quoteExpand quoteCut">Click to expand...</div></blockquote>
</aside>
</div>
<div class="bbCodeBlock bbCodeQuote">
<aside>
<blockquote class="quoteContainer"><div class="quote"><b><span style="font-size: 15px">Source</span></b><br>
<img src="https://i.imgur.com/4uiLEFv.png" class="bbCodeImage LbImage" alt="[​IMG]" data-url="https://i.imgur.com/4uiLEFv.png" style=""></div><div class="quoteExpand">Click to expand...</div></blockquote>
</aside>
</div>
<div class="bbCodeBlock bbCodeQuote">
<aside>
<blockquote class="quoteContainer"><div class="quote"><b><span style="font-size: 15px">Release Name</span></b><br>
Hobo.with.a.Shotgun.2011.1080p.HULU.WEB-DL.AAC2.0.H.264-Samuel</div><div class="quoteExpand">Click to expand...</div></blockquote>
</aside>
</div>
<div class="ToggleTriggerAnchor bbCodeSpoilerContainer">
<button type="button" class="button bbCodeSpoilerButton ToggleTrigger Tooltip JsOnly" data-target="> .SpoilerTarget"><span>Spoiler: <span class="SpoilerTitle">Media Information</span></span></button>
<div class="SpoilerTarget bbCodeSpoilerText">General<br>
Complete name : Hobo.with.a.Shotgun.2011.1080p.HULU.WEB-DL.AAC2.0.H.264-Samuel.mkv<br>
Format : Matroska<br>
Format version : Version 4<br>
File size : 3.61 GiB<br>
Duration : 1 h 26 min<br>
Overall bit rate : 5 994 kb/s<br>
Frame rate : 23.976 FPS<br>
Encoded date : 2023-10-31 08:48:37 UTC<br>
Writing application : mkvmerge v72.0.0 ('Minuano (Six-eight)') 64-bit<br>
Writing library : libebml v1.4.4 + libmatroska v1.7.1<br>
<br>
Video<br>
ID : 1<br>
Format : AVC<br>
Format/Info : Advanced Video Codec<br>
Format profile : High@L4<br>
Format settings : CABAC / 4 Ref Frames<br>
Format settings, CABAC : Yes<br>
Format settings, Reference frames : 4 frames<br>
Codec ID : V_MPEG4/ISO/AVC<br>
Duration : 1 h 26 min<br>
Bit rate : 5 928 kb/s<br>
Width : 1 920 pixels<br>
Height : 1 080 pixels<br>
Display aspect ratio : 16:9<br>
Frame rate mode : Constant<br>
Frame rate : 23.976 (24000/1001) FPS<br>
Color space : YUV<br>
Chroma subsampling : 4:2:0<br>
Bit depth : 8 bits<br>
Scan type : Progressive<br>
Bits/(Pixel*Frame) : 0.119<br>
Stream size : 3.57 GiB (99%)<br>
Default : Yes<br>
Forced : No<br>
<br>
Audio<br>
ID : 2<br>
Format : AAC LC SBR<br>
Format/Info : Advanced Audio Codec Low Complexity with Spectral Band Replication<br>
Commercial name : HE-AAC<br>
Format settings : Explicit<br>
Codec ID : A_AAC-2<br>
Duration : 1 h 26 min<br>
Bit rate : 64.0 kb/s<br>
Channel(s) : 2 channels<br>
Channel layout : L R<br>
Sampling rate : 48.0 kHz<br>
Frame rate : 23.438 FPS (2048 SPF)<br>
Compression mode : Lossy<br>
Stream size : 39.4 MiB (1%)<br>
Language : English<br>
Default : Yes<br>
Forced : No<br>
<br>
Text<br>
ID : 3<br>
Format : UTF-8<br>
Codec ID : S_TEXT/UTF8<br>
Codec ID/Info : UTF-8 Plain Text<br>
Duration : 1 h 25 min<br>
Bit rate : 59 b/s<br>
Frame rate : 0.234 FPS<br>
Count of elements : 1202<br>
Stream size : 37.0 KiB (0%)<br>
Title : SDH<br>
Language : English<br>
Default : No<br>
Forced : No<br>
<br>
Menu<br>
01:21:46.000 : en:Credits</div>
</div><br>
<b>Screenshots</b><br>
<img src="https://i.imgur.com/L6kMMuY.png" class="bbCodeImage LbImage" alt="[​IMG]" data-url="https://i.imgur.com/L6kMMuY.png" style=""><br>
<br>
<b>Download</b><br>
<div class="bbCodeBlock bbCodeVfcHH HiddenContent">
<div class="attribution type">Hidden Content:</div>
<blockquote>You must reply before you can see the hidden data contained here.</blockquote>
</div></div>
<div class="messageTextEndMarker">&nbsp;</div>
</blockquote>
</article>]]></description>
                <author><![CDATA[Samuel]]></author>
                </item>

                
                <item>
                <title><![CDATA[【Requests】[REQ AUD] - Bryan Adams - Wembley 1996 Live Dolby Atmos]]></title>
                <link><![CDATA[https://sharemania.us/threads/bryan-adams-wembley-1996-live-dolby-atmos.232030/]]></link>
                <description><![CDATA[<article>
<blockquote class="messageText SelectQuoteContainer ugc baseHtml">
<a href="https://music.apple.com/us/album/wembley-1996-live/1711254910" target="_blank" class="externalLink" rel="nofollow">https://music.apple.com/us/album/wembley-1996-live/1711254910</a><br>
<br>
Thank you
<div class="messageTextEndMarker">&nbsp;</div>
</blockquote>
</article>]]></description>
                <author><![CDATA[ayyak]]></author>
                </item>

                
                <item>
                <title><![CDATA[【HD Live Performances】HDTV - Elodie Show 2023 (TV8HD-1080i-HDTV) 2023.11.10-Danixat-HDMania]]></title>
                <link><![CDATA[https://sharemania.us/threads/elodie-show-2023-tv8hd-1080i-hdtv-2023-11-10-danixat-hdmania.232029/]]></link>
                <description><![CDATA[<article>
<blockquote class="messageText SelectQuoteContainer ugc baseHtml">
<img src="https://i.imgur.com/eNG4HB5.jpg" class="bbCodeImage LbImage" alt="[​IMG]" data-url="https://i.imgur.com/eNG4HB5.jpg" style=""><br>
<div class="bbCodeBlock bbCodeCode">
<div class="type">Code:</div>
<pre>General
ID                             : 512 (0x200)
Complete name                  : C:\Elodie Show 2023 (TV8HD-1080i-HDTV) 2023.11.10-Danixat-HDMania.ts
Format                         : MPEG-TS
File size                      : 2.44 GiB
Duration                       : 1 h 20 min
Overall bit rate mode          : Variable
Overall bit rate               : 4 355 kb/s

Video
ID                             : 701 (0x2BD)
Menu ID                        : 70 (0x46)
Format                         : AVC
Format/Info                    : Advanced Video Codec
Format profile                 : High@L4
Format settings, CABAC         : Yes
Format settings, RefFrames     : 4 frames
Codec ID                       : 27
Duration                       : 1 h 20 min
Bit rate                       : 3 882 kb/s
Width                          : 1 920 pixels
Height                         : 1 080 pixels
Display aspect ratio           : 16:9
Frame rate                     : 25.000 FPS
Standard                       : Component
Color space                    : YUV
Chroma subsampling             : 4:2:0
Bit depth                      : 8 bits
Scan type                      : Interlaced
Scan type, store method        : Separated fields
Scan order                     : Top Field First
Bits/(Pixel*Frame)             : 0.075
Stream size                    : 2.17 GiB (89%)
Color range                    : Limited
Color primaries                : BT.709
Transfer characteristics       : BT.709
Matrix coefficients            : BT.709

Audio #1
ID                             : 702 (0x2BE)
Menu ID                        : 70 (0x46)
Format                         : MPEG Audio
Format version                 : Version 1
Format profile                 : Layer 2
Codec ID                       : 3
Duration                       : 1 h 20 min
Bit rate mode                  : Constant
Bit rate                       : 128 kb/s
Channel(s)                     : 2 channels
Sampling rate                  : 48.0 kHz
Compression mode               : Lossy
Delay relative to video        : 128 ms
Stream size                    : 73.4 MiB (3%)
Language                       : Italian

Audio #2
ID                             : 703 (0x2BF)
Menu ID                        : 70 (0x46)
Format                         : MPEG Audio
Format version                 : Version 1
Format profile                 : Layer 2
Codec ID                       : 3
Duration                       : 1 h 20 min
Bit rate mode                  : Constant
Bit rate                       : 128 kb/s
Channel(s)                     : 2 channels
Sampling rate                  : 48.0 kHz
Compression mode               : Lossy
Delay relative to video        : 128 ms
Stream size                    : 73.4 MiB (3%)
Language                       : English

Menu
ID                             : 700 (0x2BC)
Menu ID                        : 70 (0x46)
Duration                       : 1 h 20 min
List                           : 701 (0x2BD) (AVC) / 702 (0x2BE) (MPEG Audio, Italian) / 703 (0x2BF) (MPEG Audio, English) / 705 (0x2C1) ()
Language                       :  / Italian / English</pre>
</div><b>CAPPED BY ME</b> <img src="styles/default/xenforo/smilies/victory-48.png" class="mceSmilie" alt=":victory:" title="Victory    :victory:"><br>
<br>
There is a little adv break around 40 minutes that I didn't cut, sorry. Anyway, hope you will enjoy it!<br>
<br>
<b>Download:</b><br>
<div class="bbCodeBlock bbCodeVfcHH HiddenContent">
<div class="attribution type">Hidden Content:</div>
<blockquote>You must either reply or click 'Like' to see the hidden information contained here.</blockquote>
</div>
<div class="messageTextEndMarker">&nbsp;</div>
</blockquote>
</article>]]></description>
                <author><![CDATA[danixat]]></author>
                </item>

                
                <item>
                <title><![CDATA[【Requests】[REQ AUD] - PNAU feat Empire Of The Sun - AEIOU 24 bit FLAC]]></title>
                <link><![CDATA[https://sharemania.us/threads/pnau-feat-empire-of-the-sun-aeiou-24-bit-flac.232031/]]></link>
                <description><![CDATA[<article>
<blockquote class="messageText SelectQuoteContainer ugc baseHtml">
Hi guys,<br>
someone can you help me with this track?<br>
<br>
<a href="https://www.qobuz.com/it-it/album/aeiou-pnau-x-empire-of-the-sun/aqdrt7e64x8la" target="_blank" class="externalLink" rel="nofollow">https://www.qobuz.com/it-it/album/aeiou-pnau-x-empire-of-the-sun/aqdrt7e64x8la</a><br>
<br>
Thanks
<div class="messageTextEndMarker">&nbsp;</div>
</blockquote>
</article>]]></description>
                <author><![CDATA[djscogna]]></author>
                </item>

                </channel></rss>